<svg xmlns="http://www.w3.org/2000/svg" viewBox="0 0 1024 1024">
  <title>army-of-agents</title>
  <path id="bg" d="M 601.62 0 c 147.85 0 221.77 0 278.24 28.77 a 263.99 263.99 0 0 1 115.37 115.37 c 28.77 56.47 28.77 130.39 28.77 278.24 L 1024 601.62 c 0 147.85 0 221.77 -28.77 278.24 a 263.99 263.99 0 0 1 -115.37 115.37 c -56.47 28.77 -130.39 28.77 -278.24 28.77 L 422.38 1024 c -147.85 0 -221.77 0 -278.24 -28.77 a 263.99 263.99 0 0 1 -115.37 -115.37 c -28.77 -56.47 -28.77 -130.39 -28.77 -278.24 L 0 422.38 c 0 -147.85 0 -221.77 28.77 -278.24 a 263.99 263.99 0 0 1 115.37 -115.37 c 56.47 -28.77 130.39 -28.77 278.24 -28.77 Z" fill="#2A2A2E"/>
  <g id="glyph" fill="#E8E8EA">
  <rect x="272" y="677" width="480" height="52" rx="20"/>
  <circle cx="344" cy="423" r="54"/>
  <polygon points="300,677 388,677 372,493 316,493"/>
  <circle cx="512" cy="359" r="64"/>
  <polygon points="462,677 562,677 544,439 480,439"/>
  <circle cx="680" cy="423" r="54"/>
  <polygon points="636,677 724,677 708,493 652,493"/>
  </g>
</svg>
